#!OML:ASF H:\Dans Jumps\Project 1\Capture day 1\Session 1\subject.ASF
:FULLY-SPECIFIED
:DEGREES
244
root 0.734435 17.5263 -14.1946 7.6726 0.122299 -1.60591
lowerback -1.43526 -0.806221 0.590933
upperback 3.67143 -1.17802 1.93696
thorax 4.62073 -0.603472 1.60554
lowerneck -13.8996 0.472646 -1.8917
upperneck 29.4917 1.3539 -0.54788
head 11.9703 0.320821 0.313225
rclavicle -1.58034e-014 3.97569e-015
rhumerus -22.5186 -19.0816 -78.2357
rradius 25.2293
rwrist 33.5031
rhand -18.3837 -26.0144
rfingers 7.12502
rthumb 7.89999 -55.8467
lclavicle -1.58034e-014 3.97569e-015
lhumerus -19.2367 3.20004 86.1762
lradius 18.293
lwrist -0.249582
lhand -24.0318 -3.45107
lfingers 7.12502
lthumb 2.44667 26.5146
rfemur -15.8524 -2.67491 19.5933
rtibia 22.1055
rfoot -13.1272 -4.57898
rtoes 9.97233
lfemur -15.3465 8.3316 -18.0254
ltibia 20.1182
lfoot -10.6329 4.4871
ltoes -9.01655
245
root 0.73389 17.525 -14.1983 7.67691 0.135831 -1.60797
lowerback -1.39392 -0.807741 0.605209
upperback 3.6835 -1.18007 1.93718
thorax 4.60956 -0.604007 1.59815
lowerneck -13.8971 0.478573 -1.88286
upperneck 29.4803 1.35977 -0.547858
head 11.9653 0.324601 0.312501
rclavicle -6.65929e-015 3.57812e-015
rhumerus -22.4961 -19.1313 -78.2237
rradius 25.2026
rwrist 33.5327
rhand -18.3898 -26.0076
rfingers 7.12502
rthumb 7.89413 -55.8402
lclavicle -6.65929e-015 3.57812e-015
lhumerus -19.2264 3.17633 86.1764
lradius 18.3183
lwrist -0.194543
lhand -24.036 -3.45584
lfingers 7.12502
lthumb 2.44259 26.5099
rfemur -15.9003 -2.68043 19.5985
rtibia 22.1638
rfoot -13.1394 -4.58342
rtoes 9.95655
lfemur -15.4042 8.33926 -18.0247
ltibia 20.1835
lfoot -10.6472 4.47204
ltoes -9.04562
246
root 0.733458 17.5235 -14.2025 7.68138 0.147981 -1.61074
lowerback -1.34605 -0.80881 0.619936
upperback 3.69711 -1.18143 1.93764
thorax 4.59627 -0.604198 1.59087
lowerneck -13.8935 0.48409 -1.87535
upperneck 29.4638 1.36459 -0.545549
head 11.9579 0.32812 0.312692
rclavicle 1.88845e-015 2.78299e-015
rhumerus -22.4733 -19.1844 -78.209
rradius 25.1727
rwrist 33.5663
rhand -18.3952 -26.0068
rfingers 7.12502
rthumb 7.88888 -55.8396
lclavicle 1.88845e-015 2.78299e-015
lhumerus -19.213 3.15984 86.1737
lradius 18.3368
lwrist -0.150251
lhand -24.0447 -3.46006
lfingers 7.12502
lthumb 2.43415 26.5058
rfemur -15.9529 -2.6862 19.6043
rtibia 22.2277
rfoot -13.1519 -4.58729
rtoes 9.92477
lfemur -15.4668 8.34702 -18.0237
ltibia 20.2561
lfoot -10.6631 4.45764
ltoes -9.06855
247
root 0.733186 17.5219 -14.2071 7.68766 0.156127 -1.61306
lowerback -1.29372 -0.808395 0.633913
upperback 3.71257 -1.18071 1.93748
thorax 4.58231 -0.603369 1.58354
lowerneck -13.8832 0.489822 -1.85947
upperneck 29.4349 1.36958 -0.551553
head 11.9445 0.331771 0.308289
rclavicle -1.98785e-016 1.11319e-014
rhumerus -22.4501 -19.2413 -78.1922
rradius 25.1405
rwrist 33.6056
rhand -18.3998 -26.0036
rfingers 7.12502
rthumb 7.88444 -55.8366
lclavicle -1.98785e-016 1.11319e-014
lhumerus -19.1953 3.16388 86.1647
lradius 18.3487
lwrist -0.130159
lhand -24.0554 -3.47211
lfingers 7.12502
lthumb 2.42388 26.4939
rfemur -16.0133 -2.68954 19.609
rtibia 22.2974
rfoot -13.1636 -4.59116
rtoes 9.88194
lfemur -15.5355 8.35516 -18.0245
ltibia 20.3357
lfoot -10.6814 4.44679
ltoes -9.07744
248
root 0.733047 17.5201 -14.2121 7.69543 0.161536 -1.6168
lowerback -1.23541 -0.806512 0.648362
upperback 3.73085 -1.17799 1.93789
thorax 4.56786 -0.601554 1.5767
lowerneck -13.8744 0.494468 -1.83559
upperneck 29.3991 1.37338 -0.566069
head 11.9287 0.334769 0.299147
rclavicle 1.27222e-014 -2.06736e-014
rhumerus -22.4244 -19.3015 -78.1726
rradius 25.1063
rwrist 33.6504
rhand -18.4053 -25.998
rfingers 7.12502
rthumb 7.8792 -55.8312
lclavicle 1.27222e-014 -2.06736e-014
lhumerus -19.1727 3.17463 86.1527
lradius 18.3553
lwrist -0.122292
lhand -24.0679 -3.47361
lfingers 7.12502
lthumb 2.41181 26.4925
rfemur -16.0817 -2.69238 19.6153
rtibia 22.3734
rfoot -13.1745 -4.59485
rtoes 9.82967
lfemur -15.6109 8.36569 -18.0248
ltibia 20.4223
lfoot -10.7009 4.43581
ltoes -9.08643
249
root 0.733006 17.5183 -14.2179 7.70604 0.162336 -1.61998
lowerback -1.16997 -0.803007 0.660416
upperback 3.75139 -1.17293 1.93867
thorax 4.55171 -0.598678 1.5718
lowerneck -13.8694 0.498238 -1.80974
upperneck 29.3597 1.37653 -0.584181
head 11.9124 0.337264 0.288244
rclavicle 1.18277e-014 -7.95139e-015
rhumerus -22.3966 -19.3644 -78.1495
rradius 25.0705
rwrist 33.7015
rhand -18.411 -25.9796
rfingers 7.12502
rthumb 7.87368 -55.813
lclavicle 1.18277e-014 -7.95139e-015
lhumerus -19.1467 3.2013 86.1363
lradius 18.358
lwrist -0.130072
lhand -24.0796 -3.46546
lfingers 7.12502
lthumb 2.40051 26.5008
rfemur -16.1604 -2.68974 19.6204
rtibia 22.4567
rfoot -13.1854 -4.6002
rtoes 9.78764
lfemur -15.6948 8.37547 -18.0267
ltibia 20.516
lfoot -10.721 4.4284
ltoes -9.07765
250
root 0.733148 17.5162 -14.2243 7.7199 0.160086 -1.62002
lowerback -1.09754 -0.799501 0.668543
upperback 3.77528 -1.16765 1.93937
thorax 4.53516 -0.595845 1.56911
lowerneck -13.8622 0.502039 -1.78198
upperneck 29.3071 1.38011 -0.606238
head 11.8905 0.339818 0.275565
rclavicle -2.78299e-015 -8.74653e-015
rhumerus -22.3638 -19.4273 -78.1249
rradius 25.0337
rwrist 33.7596
rhand -18.4154 -25.9457
rfingers 7.12502
rthumb 7.86938 -55.7793
lclavicle -2.78299e-015 -8.74653e-015
lhumerus -19.1179 3.23813 86.1162
lradius 18.3598
lwrist -0.143975
lhand -24.0914 -3.4532
lfingers 7.12502
lthumb 2.38907 26.5132
rfemur -16.2512 -2.68933 19.6221
rtibia 22.549
rfoot -13.1972 -4.60265
rtoes 9.74452
lfemur -15.7887 8.38588 -18.034
ltibia 20.6176
lfoot -10.7416 4.42357
ltoes -9.07012
251
root 0.733411 17.5141 -14.2315 7.73614 0.154972 -1.61778
lowerback -1.01301 -0.794726 0.676159
upperback 3.79982 -1.16034 1.93793
thorax 4.51232 -0.591976 1.56473
lowerneck -13.8549 0.504495 -1.76332
upperneck 29.2509 1.38064 -0.616806
head 11.867 0.341503 0.268314
rclavicle 3.27995e-015 1.35174e-014
rhumerus -22.3392 -19.4938 -78.0969
rradius 24.997
rwrist 33.8281
rhand -18.4503 -25.8683
rfingers 7.12502
rthumb 7.83571 -55.7031
lclavicle 3.27995e-015 1.35174e-014
lhumerus -19.0959 3.27591 86.0894
lradius 18.3623
lwrist -0.15603
lhand -24.0826 -3.44551
lfingers 7.12502
lthumb 2.39761 26.5208
rfemur -16.3536 -2.68763 19.6215
rtibia 22.6526
rfoot -13.2103 -4.60567
rtoes 9.70266
lfemur -15.8921 8.39707 -18.045
ltibia 20.7289
lfoot -10.7636 4.42012
ltoes -9.06181
